<?xml version="1.0" encoding="utf-8"?>
<!-- Generator: Adobe Illustrator 16.0.0, SVG Export Plug-In . SVG Version: 6.00 Build 0)  -->
<!DOCTYPE svg PUBLIC "-//W3C//DTD SVG 1.1//EN" "http://www.w3.org/Graphics/SVG/1.1/DTD/svg11.dtd">
<svg version="1.1" id="Layer_1" xmlns="http://www.w3.org/2000/svg" xmlns:xlink="http://www.w3.org/1999/xlink" x="0px" y="0px"
	 width="175px" height="57.1px" viewBox="0 0 175 57.1" enable-background="new 0 0 175 57.1" xml:space="preserve">
<g>
	<path fill="#EDA822" d="M57.1,28.5C57.1,44.3,44.3,57,28.6,57C12.8,57.1,0,44.3,0,28.5S12.8,0,28.5,0C44.3,0,57.1,12.8,57.1,28.5"
		/>
	<path fill="#1D1D1B" d="M50.8,28.5c0,12.3-9.9,22.2-22.2,22.2c-12.3,0-22.3-9.9-22.3-22.2S16.2,6.3,28.5,6.3S50.8,16.3,50.8,28.5"
		/>
	<path fill="#EDA724" d="M72.1,19"/>
	<path fill="#EDA724" d="M66.6,39.2"/>
	<path fill="#EDA724" d="M79.8,39.2"/>
</g>
<rect x="20" y="10" fill="none" width="42" height="31"/>
<text transform="matrix(1 0 0 1 20 40.9377)" fill="#EDA724" font-family="'SimHei'" font-size="36">C</text>
<rect x="65" y="17.1" fill="none" width="100" height="34"/>
<text transform="matrix(1 0 0 1 61 40.0999)" fill="#EDA822" font-family="'Impact'" font-size="30">chipcoin</text>
</svg>
