<?xml version="1.0" encoding="utf-8"?>
<!-- Generator: Adobe Illustrator 16.0.0, SVG Export Plug-In . SVG Version: 6.00 Build 0)  -->
<!DOCTYPE svg PUBLIC "-//W3C//DTD SVG 1.1//EN" "http://www.w3.org/Graphics/SVG/1.1/DTD/svg11.dtd">
<svg version="1.1" id="Layer_1" xmlns="http://www.w3.org/2000/svg" xmlns:xlink="http://www.w3.org/1999/xlink" x="0px" y="0px"
	 width="57.1px" height="57.1px" viewBox="0 0 57.1 57.1" enable-background="new 0 0 57.1 57.1" xml:space="preserve">
<g>
	<path fill="#EDA822" d="M57.1,28.5C57.1,44.3,44.3,57,28.6,57C12.8,57.1,0,44.3,0,28.5S12.8,0,28.5,0C44.3,0,57.1,12.8,57.1,28.5"
		/>
	<path fill="#1D1D1B" d="M50.8,28.5c0,12.3-9.9,22.2-22.2,22.2S6.3,40.8,6.3,28.5S16.2,6.3,28.5,6.3S50.8,16.3,50.8,28.5"/>
	<path fill="#EDA822" d="M32.4,23"/>
	<path fill="#EDA822" d="M19.8,14.3"/>
	<path fill="#EDA822" d="M17.1,23"/>
	<path fill="#EDA822" d="M17.1,30.3"/>
	<path fill="#EDA822" d="M19.8,42.8"/>
	<path fill="#EDA822" d="M32.4,33.9"/>
</g>
<rect x="19.8" y="9.5" fill="none" width="34.5" height="38"/>
<text transform="matrix(1 0 0 1 19.8 40.4377)" fill="#EDA822" font-family="'SimHei'" font-size="36">C</text>
</svg>
